<svg width="105" height="105" viewBox="0 0 105 105" fill="none" xmlns="http://www.w3.org/2000/svg">
<path d="M53.2447 70.6325C53.2447 70.6325 3.92231 88.9022 3.81586 90.2235C3.7094 91.5448 23.5596 102.165 56.7333 101.609C88.3756 101.082 100.602 91.2865 100.815 90.2235C101.028 89.1605 54.3339 70.3642 53.2447 70.6325Z" fill="#88B154"/>
<path d="M51.1839 20.0234L47.6394 14.6296C47.6394 14.6296 41.9158 21.8942 40.3697 23.8746C38.8237 25.8549 37.6312 26.9994 36.8911 28.8603C35.8302 31.5173 32.4667 54.4555 32.4667 54.4555L22.7381 66.5466C22.7381 66.5466 20.9042 65.1634 20.4519 65.6112C19.9996 66.059 5.09832 87.5542 5.09832 87.5542L3.81543 89.9326C3.81543 89.9326 6.77596 90.7288 7.68879 90.6193C8.13286 90.5695 10.3204 89.9625 12.7957 89.654C15.4026 89.3256 18.7332 89.5943 19.1033 89.5445C19.5227 89.4948 20.97 88.9773 20.97 88.9773L33.9141 79.6329L44.1937 79.1552L54.276 81.7227L73.3631 82.8273L83.8154 63.9095L61.0934 27.4969L51.1839 20.0234Z" fill="#9EA2A3"/>
<path d="M23.3249 75.2768C23.3249 75.2768 22.9745 74.0777 22.7138 73.1906C22.4531 72.3034 22.6079 66.6296 22.6079 66.6296C22.6079 66.6296 28.4823 70.7826 29.1341 71.465C29.7859 72.1475 35.6032 76.4857 35.6032 76.4857L39.1066 76.3784L39.8154 78.26C39.8154 78.26 34.7721 81.1261 33.11 81.7598C31.4479 82.3837 20.7992 88.8667 20.8154 88.6229C20.848 88.116 23.5856 83.4268 23.5856 83.4268L23.3249 75.2768Z" fill="#717A7C"/>
<path d="M65.7922 81.1086L25.5764 88.8654C25.5764 88.8654 23.6334 90.9691 23.8293 91.5274C24.0252 92.0858 31.4463 93.7707 34.0098 94.1695C36.5733 94.5683 54.1013 95.7747 56.0035 95.6152C57.9057 95.4557 77.3442 94.2493 80.0383 93.8505C82.7324 93.4517 91.7863 92.684 92.3822 92.3549C93.5333 91.7169 98.8154 88.2373 98.8154 88.2373C98.8154 88.2373 92.9047 76.8513 91.7209 74.1195C90.5372 71.3976 88.5696 66.5023 87.1899 64.8173C85.8102 63.1323 84.8224 62.4145 84.8224 62.4145C84.8224 62.4145 82.961 57.1303 80.7894 53.7604C78.6259 50.3904 75.6624 44.9368 74.9685 44.0993C72.3642 40.9287 72.2907 40.6296 72.2907 40.6296L73.9235 64.6578C73.9235 64.6578 70.9028 72.0357 69.8496 74.0397C68.8128 76.0637 65.7922 81.1086 65.7922 81.1086Z" fill="#798082"/>
<path d="M51.6186 5.92951L50.8154 25.2068L60.2629 32.1631C60.2629 32.1631 63.103 40.7996 63.2355 41.5954C63.3679 42.3815 63.1113 44.5136 63.3762 45.0638C63.6412 45.614 68.5347 49.6129 68.7251 49.6227C69.8098 49.6915 72.0537 49.2297 71.9212 48.9939C71.7887 48.7581 72.8154 43.6293 72.8154 43.6293C72.8154 43.6293 66.3239 31.1413 64.9246 27.6631C63.5253 24.185 58.2674 15.1751 57.663 13.6719C57.0586 12.1686 54.202 7.18715 53.5975 6.40112C52.9931 5.61509 52.0243 5.37929 51.6186 5.92951Z" fill="#717A7C"/>
<path d="M55.4882 43.2284C55.4882 43.2284 59.6875 34.306 59.8122 32.9395C59.9368 31.573 56.4309 23.2434 55.5505 20.2492C54.6702 17.2549 52.3562 11.1157 52.1069 10.3119C51.8576 9.50808 51.6083 5.62964 51.6083 5.62964C51.6083 5.62964 49.8553 8.05115 49.2243 9.99037C48.601 11.9296 46.2403 16.7023 46.2403 16.7023C46.2403 16.7023 47.7206 27.7749 48.2894 32.5376C48.8503 37.3103 49.271 43.57 49.1853 43.8011C48.6477 45.2078 45.0327 56.5417 45.0327 56.5417C45.0327 56.5417 44.5653 62.0378 45.0016 62.6005C45.4379 63.1632 47.9699 63.9067 48.1647 63.5249C48.5465 62.7914 48.5387 60.0082 48.5387 60.0082C48.5387 60.0082 55.5661 47.77 55.7921 47.1671C55.8778 46.936 55.4882 43.2284 55.4882 43.2284Z" fill="#C0C0C0"/>
<path d="M40.8149 44.2051C40.7894 43.0198 39.2861 37.397 39.0143 36.1333C38.7425 34.8696 38.165 28.6296 37.4091 28.6296C36.6617 28.6296 33.1964 39.6207 32.8482 40.6492C32.5085 41.6778 27.6588 53.7268 27.0388 55.1472C26.4273 56.5676 23.6245 62.7096 23.0809 63.7382C22.5374 64.7668 21.8154 66.5105 21.8154 66.5105L35.6935 76.6296L40.7045 75.9733C40.7045 75.9733 37.7743 66.8925 37.0863 64.8451C36.3984 62.7978 35.583 59.4868 35.583 59.4868C35.583 59.4868 37.1713 55.0982 38.2075 51.9439C39.2521 48.77 40.8489 45.3807 40.8149 44.2051Z" fill="#C0C0C0"/>
<path d="M20.677 65.7308C20.7093 65.8776 20.8788 69.5656 20.79 71.7667C20.7012 73.9775 20.3461 76.1884 20.3461 76.1884L14.4701 83.6231L14.2845 85.296C14.2845 85.296 5.35757 89.1209 4.77644 89.3362C4.1953 89.5514 4.00966 89.6296 4.00966 89.6296C4.00966 89.6296 2.79896 88.7394 6.42299 83.946C11.1044 77.7536 17.0933 69.2721 17.852 68.2058C19.1999 66.3178 20.5882 65.2906 20.677 65.7308Z" fill="#C0C0C0"/>
<path d="M87.3356 77.6364C86.8955 77.3854 85.7733 84.1815 85.5386 86.5807C85.3039 88.9799 84.6804 93.5374 84.8418 93.9891C85.3112 95.264 90.3134 94.4208 90.7975 93.3266C90.9369 93.0154 90.2328 87.9058 89.7267 85.7475C89.0372 82.7962 88.4724 78.2889 87.3356 77.6364Z" fill="#33632C"/>
<path d="M97.0588 68.6302C96.2384 68.6697 95.3657 76.7682 94.8246 78.5339C94.2136 80.5364 92.1714 90.0159 93.018 91.101C93.8645 92.1861 97.1024 91.3279 98.3068 90.9333C99.4675 90.5585 100.471 89.9272 100.75 89.2268C101.03 88.5264 100.366 82.8742 99.5635 78.9285C98.7432 74.9335 98.3504 68.5611 97.0588 68.6302Z" fill="#33632C"/>
<path d="M25.8427 88.6149C25.8427 88.6149 27.945 89.587 35.1448 90.1325C42.3446 90.6781 45.8837 90.6285 45.8837 90.6285L62.3288 87.6924L66.0626 80.4713C66.0626 80.4713 61.095 80.2431 58.457 80.134C55.8189 80.0249 51.8822 80.0051 51.7036 79.4099C51.525 78.8049 56.1436 74.7083 57.4423 73.8949C58.7411 73.0716 61.8742 72.6352 62.5885 71.7127C63.3028 70.7803 72.329 64.561 73.441 64.5114C74.5612 64.4519 78.0515 67.0805 78.7171 66.8027C79.3908 66.525 76.3956 56.8439 75.9979 55.0287C75.9654 54.87 74.3826 45.4369 74.3339 45.2584C73.9605 43.8598 72.816 40.2294 72.0936 40.6658C71.3793 41.1022 70.1699 44.4351 69.277 47.7679C68.3841 51.1007 67.8484 52.8564 67.4019 53.6698C66.9555 54.4832 61.7687 58.5401 61.0463 59.4626C60.332 60.395 58.181 62.3589 56.8823 63.0136C55.5835 63.6683 54.3335 63.6683 53.3919 64.7098C52.4503 65.7513 51.2896 67.5566 49.9909 69.2428C48.6922 70.939 46.0541 74.8273 45.1856 75.7795C44.3171 76.7318 43.5378 77.6542 43.5378 77.6542C43.5378 77.6542 37.2633 79.8265 35.1529 81.0763C33.0587 82.3361 25.2988 88.4463 25.8427 88.6149Z" fill="#C0C0C0"/>
<path d="M23.4105 67.9166L21.8617 65.6296L18.8402 67.2463L11.8154 80.4752L14.2191 83.6296C14.2191 83.6296 20.1012 79.864 20.7275 79.7162C21.667 79.4894 24.8154 79.6373 24.8154 79.6373L23.4105 67.9166Z" fill="white"/>
<path d="M23.5119 80.1018L28.0956 80.2023C28.0956 80.2023 32.9893 82.0803 35.1099 81.528C37.2305 80.9756 39.6284 78.5652 39.6284 78.5652C39.6284 78.5652 41.4799 77.6413 40.5582 76.3256C40.3462 76.0243 38.9596 75.5523 35.1833 74.3873C31.407 73.2223 30.9177 72.3184 30.9177 72.3184C30.9177 72.3184 26.5215 68.5622 24.9474 67.106C23.3733 65.6497 21.8154 65.6296 21.8154 65.6296C21.8154 65.6296 22.8268 70.2294 23.0552 72.9913C23.2754 75.7531 23.5119 80.1018 23.5119 80.1018Z" fill="#8CC2EA"/>
<path d="M4.86926 86.378C4.29485 87.2251 8.47162 85.7003 10.0718 85.2319C12.115 84.6339 14.6014 83.727 14.6014 83.727L15.2579 77.6674C15.2579 77.6674 19.5331 68.3389 20.0911 67.5615C20.6491 66.7842 22.8154 65.4786 22.8154 65.4786C22.8154 65.4786 21.5189 64.6912 20.6245 64.6314C19.1064 64.5318 16.2097 68.6279 14.6999 71.0298C13.1982 73.4317 10.5805 77.7671 10.5805 77.7671C10.5805 77.7671 9.35785 78.1657 8.11056 80.2985C6.23143 83.5276 4.86926 86.378 4.86926 86.378Z" fill="#C6E4F7"/>
<path d="M32.3587 68.6312C31.8431 68.5627 31.191 70.7839 30.8422 72.4376C30.592 73.602 28.9769 79.5023 28.7873 80.6472C28.5902 81.8018 27.5893 85.207 27.8623 85.3636C28.1352 85.5103 29.0224 85.7745 29.4925 85.5299C29.6138 85.4712 31.2592 84.0034 32.4497 83.0837C33.6401 82.1639 34.8154 81.3321 34.8154 81.2734C34.8154 80.6765 33.9055 75.1774 33.807 74.4435C33.5264 72.3397 33.1624 68.7388 32.3587 68.6312Z" fill="#33632C"/>
<path d="M37.8091 70.6447C37.2997 70.8414 36.6696 73.0846 36.0739 75.4064C35.6941 76.8723 34.5892 81.2699 34.8568 81.4864C35.1244 81.7028 37.74 81.7422 38.8449 81.1125C39.9067 80.5025 40.6664 79.7352 40.8045 79.3023C40.9426 78.8694 39.7341 75.0522 39.2679 73.6552C38.9054 72.6025 38.3443 70.4282 37.8091 70.6447Z" fill="#33632C"/>
<path d="M38.1354 48.6296L27.6549 53.4071L26.8154 55.4712C26.8154 55.4712 28.4435 57.5547 29.5797 58.9598C30.5633 60.1711 33.1919 61.7798 33.6583 62.8651C34.5741 64.997 38.1608 67.1871 39.95 68.2143C41.7391 69.2415 41.8154 68.0399 41.8154 68.0399L38.1354 48.6296Z" fill="#9EA2A3"/>
<path d="M42.779 76.6296L40.8154 78.5606C40.8154 78.5606 42.9307 80.47 44.4952 81.1064C46.0597 81.7429 48.5661 83.005 51.2241 83.6415C53.8822 84.278 56.3885 83.8573 58.1047 84.0622C59.8288 84.278 63.341 86.6296 63.341 86.6296C63.341 86.6296 64.0833 84.5692 64.8256 83.1453C65.568 81.7321 65.8154 80.9446 65.8154 80.9446L59.0626 78.9597L42.779 76.6296Z" fill="#9EA2A3"/>
<path d="M62.6895 83.6309C62.1125 83.6916 61.3032 89.1494 61.0147 90.3623C60.8545 91.0495 59.5163 95.7493 59.8768 96.5377C60.598 98.1548 66.5278 97.7202 66.7922 96.8712C67.0487 96.0222 65.1015 90.342 64.7409 89.2909C64.3723 88.26 63.5389 83.54 62.6895 83.6309Z" fill="#33632C"/>
<path d="M37.6737 27.7597L28.8154 53.979C28.8154 53.979 29.3675 55.0184 30.147 56.1558C30.9346 57.2932 33.8332 60.1269 34.7751 60.98C35.7169 61.8331 35.7981 62.5881 36.9673 63.5392C38.1446 64.4903 42.3748 66.9514 43.8688 67.8927L47.8636 70.4519C47.8636 70.4519 45.3547 73.5798 44.6483 74.8054C43.9419 76.0409 43.341 77.2372 43.341 77.2372L56.324 79.6296C56.324 79.6296 78.9609 67.3927 78.8147 66.7945C78.6686 66.1964 77.881 52.9397 77.4101 52.2729C76.9391 51.6062 72.1568 42.3304 72.1568 42.3304L67.3745 41.4773L59.8478 24.2494L51.9314 8.62964L46.5239 18.7585L43.6252 25.1907L37.6737 27.7597Z" fill="white"/>
<path d="M47.8195 64.2695C47.7299 64.935 49.1551 67.7264 49.7822 67.627C50.4092 67.5277 54.1066 63.6039 55.0513 62.8291C55.996 62.0642 61.5013 57.7431 62.7554 56.7895C64.0096 55.826 67.316 52.3095 67.5522 51.8029C67.8617 51.1174 68.8471 44.9487 69.0426 44.1341C69.1321 43.7765 70.9971 41.9885 71.2007 42.2964C71.6079 42.9024 73.367 48.8327 73.7579 50.4618C74.1488 52.0909 76.5105 63.6039 76.6653 64.3688C76.9015 65.5013 78.628 67.627 80.045 66.5741C81.4621 65.5211 85.3467 63.6238 85.8028 62.7199C86.0471 62.243 82.6918 56.2332 80.892 53.0942C79.0922 49.9552 77.4227 46.6573 75.7613 43.8461C74.4013 41.5415 73.5543 40.111 72.6503 39.5249C71.7382 38.9389 70.9645 40.2998 70.9645 40.2998C70.9645 40.2998 64.3191 26.2835 63.1382 23.7902C61.9573 21.2968 55.7109 9.32687 54.1554 6.57526C53.1375 4.76735 52.5022 4.24087 51.5494 4.90642C50.5965 5.56204 51.1096 10.4593 51.1096 10.4593C51.1096 10.4593 60.0109 31.2403 59.6037 32.6112C59.1884 33.982 55.9064 41.3428 54.0984 45.7533C52.2986 50.1737 48.0556 62.551 47.8195 64.2695Z" fill="#8CC2EA"/>
<path d="M38.0611 29.8516C38.706 28.6623 44.2601 44.0637 45.6627 44.252C47.0653 44.4403 48.0004 32.4879 47.8391 29.8021C47.686 27.1262 47.8391 18.2263 48.4598 16.3135C49.0805 14.4007 50.7169 11.4374 50.7169 11.4374C50.7169 11.4374 51.6278 9.05878 51.7165 8.42448C51.9825 6.59099 51.6278 5.62964 51.6278 5.62964C51.6278 5.62964 50.7169 5.88732 49.8544 7.32439C48.9999 8.76145 45.4773 17.0172 45.4773 17.0172C45.4773 17.0172 41.0598 22.4483 39.8184 23.4988C38.577 24.5494 36.7794 25.8873 36.3925 26.7496C36.0056 27.6118 32.9666 37.9983 31.4914 42.1509C29.6535 47.3442 27.88 51.7644 27.8156 53.4294C27.7994 53.7565 29.2665 55.6296 29.2665 55.6296C29.2665 55.6296 30.4999 52.7159 31.9751 47.9389C33.4502 43.1618 37.4243 31.0409 38.0611 29.8516Z" fill="#C6E4F7"/>
<path d="M43.8735 75.5905C43.8735 75.5905 42.6877 77.4981 42.8268 77.7908C43.2193 78.6184 49.0011 80.7076 50.0233 80.9095C51.0456 81.1113 56.8928 81.7875 58.8636 81.5958C60.8345 81.404 65.684 80.9801 65.684 80.9801C65.684 80.9801 68.8897 76.2365 69.6748 75.4492C70.4681 74.6721 74.647 72.7241 74.647 72.7241L79.8154 66.9712C79.8154 66.9712 78.3107 66.84 77.5665 66.295C76.8223 65.75 76.5443 64.6296 76.5443 64.6296C76.5443 64.6296 72.9133 67.1629 71.4085 68.142C69.912 69.121 64.1466 71.4524 62.4864 72.6232C60.8263 73.794 56.1731 76.7108 56.1731 76.7108C56.1731 76.7108 47.9625 77.488 47.1692 77.1953C46.3923 76.9228 43.8735 75.5905 43.8735 75.5905Z" fill="#C6E4F7"/>
</svg>
